<?xml version="1.0" encoding="utf-8"?>
<!-- Generator: Adobe Illustrator 19.1.0, SVG Export Plug-In . SVG Version: 6.00 Build 0)  -->
<svg version="1.1" id="Capa_1" xmlns="http://www.w3.org/2000/svg" xmlns:xlink="http://www.w3.org/1999/xlink" x="0px" y="0px"
	 viewBox="0 0 162 54" style="enable-background:new 0 0 162 54;" xml:space="preserve">
<style type="text/css">
	.st0{fill:#FFFFFF;}
	.st1{opacity:0.45;fill:#FFFFFF;}
</style>
<g>
	<g>
		<path class="st0" d="M159.8,6.8c0,1.8-1.2,3.4-3.4,3.4c-2.1,0-3.4-1.6-3.4-3.4c0-1.8,1.2-3.4,3.4-3.4
			C158.6,3.4,159.8,4.9,159.8,6.8z M156.4,9.8c1.8,0,2.9-1.3,2.9-3c0-1.7-1-3-2.9-3c-1.8,0-2.9,1.3-2.9,3
			C153.5,8.4,154.6,9.8,156.4,9.8z M156.7,5h-1.6v3.6h0.4V7.2h0.8l1.2,1.3h0.5V8.4l-1.1-1.3C158.3,7,158.3,5,156.7,5z M155.6,5.4
			h1.1c1,0,1,1.4,0,1.4h-1.1V5.4z"/>
	</g>
	<g>
		<path class="st0" d="M18.3,26H1.6c0-7.4,0-14.8,0-22.2h16.6v4.1H5.8V13h12v3.9h-12v5h12.5V26z"/>
		<path class="st0" d="M31.9,26v-8.4c0-2.1-1.1-3.9-3.2-3.9c-2.1,0-3.3,1.9-3.3,3.9V26h-3.9V10.3h3.6l0.3,1.9
			c0.8-1.6,2.6-2.2,4.1-2.2c1.9,0,3.7,0.8,4.6,2.9c1.4-2.2,3.2-2.9,5.2-2.9c4.4,0,6.6,2.7,6.6,7.4V26h-3.9v-8.4c0-2.1-0.9-3.8-3-3.8
			c-2.1,0-3.4,1.8-3.4,3.9V26H31.9z"/>
		<path class="st0" d="M49.9,32.6V10.4h3.6l0.3,2.2c1.2-1.7,3.3-2.5,5.1-2.5c4.8,0,8,3.6,8,8.2c0,4.6-2.9,8.2-7.9,8.2
			c-1.7,0-4.1-0.5-5.2-2.2v8.4H49.9z M63,18.2c0-2.4-1.7-4.4-4.4-4.4c-2.8,0-4.4,2-4.4,4.4c0,2.4,1.8,4.4,4.4,4.4S63,20.7,63,18.2z"
			/>
		<path class="st0" d="M82.4,10.4h3.7V26h-3.7l-0.2-2.3c-0.9,1.8-3.3,2.7-5.1,2.8c-4.6,0-8.1-2.8-8.1-8.3c0-5.4,3.6-8.2,8.2-8.2
			c2.1,0,4.1,1,5,2.5L82.4,10.4z M73,18.2c0,3,2.1,4.8,4.6,4.8c6.1,0,6.1-9.5,0-9.5C75.1,13.5,73,15.2,73,18.2z"/>
		<path class="st0" d="M99.9,14.5c-1.1-1-2.4-1.4-3.9-1.4c-1.8,0-2.9,0.6-2.9,1.6c0,1,0.9,1.6,2.9,1.7c3,0.2,6.7,0.9,6.7,5
			c0,2.8-2.3,5.1-6.7,5.1c-2.5,0-5-0.4-7.2-2.8l1.9-2.8c1.1,1.2,3.7,2.2,5.4,2.2c1.5,0,2.8-0.7,2.8-1.9c0-1.1-0.9-1.5-3.1-1.7
			c-3-0.2-6.5-1.3-6.5-4.9c0-3.6,3.7-4.9,6.6-4.9c2.4,0,4.3,0.5,6.1,2.1L99.9,14.5z"/>
		<path class="st0" d="M110.9,6v4.4h4.3v3.3h-4.4v6.8c0,1.5,0.8,2.2,2,2.2c0.6,0,1.3-0.2,1.9-0.5l1.1,3.3c-1.1,0.4-2,0.6-3.2,0.7
			c-3.4,0.1-5.6-1.8-5.6-5.7v-6.8h-2.9v-3.3h2.9v-4L110.9,6z"/>
		<path class="st0" d="M121.7,19.6c0.3,1.9,1.9,3.3,4.7,3.3c1.4,0,3.3-0.5,4.2-1.5l2.5,2.4c-1.7,1.7-4.4,2.5-6.7,2.5
			c-5.4,0-8.6-3.3-8.6-8.4c0-4.8,3.2-8.2,8.3-8.2c5.2,0,8.5,3.2,7.9,9.7H121.7z M130.2,16.4c-0.3-2-1.8-3-4.1-3c-2.1,0-3.8,1-4.4,3
			H130.2z"/>
		<path class="st0" d="M147.4,14.5c-1.1-1-2.4-1.4-3.9-1.4c-1.8,0-2.9,0.6-2.9,1.6c0,1,0.9,1.6,2.9,1.7c3,0.2,6.7,0.9,6.7,5
			c0,2.8-2.3,5.1-6.7,5.1c-2.5,0-5-0.4-7.2-2.8l1.9-2.8c1.1,1.2,3.7,2.2,5.4,2.2c1.5,0,2.8-0.7,2.8-1.9c0-1.1-0.9-1.5-3.1-1.7
			c-3-0.2-6.5-1.3-6.5-4.9c0-3.6,3.7-4.9,6.6-4.9c2.4,0,4.3,0.5,6.1,2.1L147.4,14.5z"/>
	</g>
	<g>
		<g>
			<g>
				<path class="st0" d="M62,44.1c-0.2,0.7-0.2,1.4,1.2,1.4c1.6,0,3.8-0.6,5.7-1.5l0.8,2.4c-1.8,0.9-4.5,1.7-7,1.7
					c-3.9,0-4.7-1.9-4.2-4.6l0.8-3.9c0.6-3,2.3-4.9,6.8-4.9c2.8,0,4.8,1.3,4.8,3.3c0,2.3-1.7,3.6-5.8,4.7c-1.8,0.5-2.2,0.6-2.9,0.7
					L62,44.1z M67.3,38.2c0-0.6-0.6-1-1.6-1c-1.7,0-2.5,0.9-2.7,2.1l-0.3,1.3c0.5-0.1,0.7-0.2,2.2-0.6C66.6,39.6,67.3,39,67.3,38.2z
					"/>
				<path class="st0" d="M89.4,35h3.1v1.4c1.3-1,2.9-1.7,5.1-1.7c2.6,0,3.4,1.2,3.4,2.9c0,0.4-0.1,0.9-0.2,1.3l-0.8,3.7
					C99.4,46,98.7,48,92.9,48c-0.5,0-1.6-0.1-2.4-0.2L89.4,53l-3.8,0.4L89.4,35z M91,45.2c0.7,0.1,1.6,0.2,2.2,0.2
					c2.3,0,3-0.8,3.3-2.5l0.9-4.5c0-0.2,0-0.2,0-0.3c0-0.5-0.4-0.7-1-0.7c-1.6,0-3.4,1.1-4.1,1.9L91,45.2z"/>
				<path class="st0" d="M112.6,37.6c-1.7,0.8-2.8,1.4-4.4,2.3l-1.6,7.9h-3.7l2.6-12.5l3.2-0.5l-0.2,1.9c1-0.7,2.6-1.4,3.8-1.9
					L112.6,37.6z"/>
				<path class="st0" d="M116.8,44.1c-0.2,0.7-0.2,1.4,1.2,1.4c1.6,0,3.8-0.6,5.7-1.5l0.8,2.4c-1.8,0.9-4.5,1.7-7,1.7
					c-3.9,0-4.7-1.9-4.2-4.6l0.8-3.9c0.6-3,2.3-4.9,6.8-4.9c2.8,0,4.8,1.3,4.8,3.3c0,2.3-1.7,3.6-5.8,4.7c-1.8,0.5-2.2,0.6-2.9,0.7
					L116.8,44.1z M122,38.2c0-0.6-0.6-1-1.6-1c-1.7,0-2.5,0.9-2.7,2.1l-0.3,1.3c0.5-0.1,0.7-0.2,2.2-0.6C121.3,39.6,122,39,122,38.2
					z"/>
				<path class="st0" d="M126.6,47.2l0.7-2.4c1.2,0.3,2.7,0.7,4.2,0.7c1.6,0,2-0.2,2.1-1.1c0.2-0.8,0-1.1-2.2-2
					c-3.1-1.3-3.5-2.3-3.1-4.3c0.5-2.6,1.7-3.4,5.6-3.4c1.4,0,3.2,0.3,4.4,0.6l-0.6,2.4c-1.1-0.3-2.8-0.5-3.8-0.5
					c-1.5,0-1.9,0.1-2.1,1c-0.2,0.9,0.1,1.1,1.7,1.8c3.4,1.6,4,2.1,3.6,4.1c-0.6,2.9-1.7,3.9-5.9,3.9
					C129.9,48,127.9,47.7,126.6,47.2z"/>
				<path class="st0" d="M139.3,47.2l0.7-2.4c1.2,0.3,2.7,0.7,4.2,0.7c1.6,0,2-0.2,2.1-1.1c0.2-0.8,0-1.1-2.2-2
					c-3.1-1.3-3.5-2.3-3.1-4.3c0.5-2.6,1.7-3.4,5.6-3.4c1.4,0,3.2,0.3,4.4,0.6l-0.6,2.4c-1.1-0.3-2.8-0.5-3.8-0.5
					c-1.5,0-1.9,0.1-2.1,1c-0.2,0.9,0.1,1.1,1.7,1.8c3.4,1.6,4,2.1,3.6,4.1c-0.6,2.9-1.7,3.9-5.9,3.9
					C142.6,48,140.5,47.7,139.3,47.2z"/>
			</g>
			<polygon class="st0" points="73.6,35.4 77.1,34.8 80.8,41.7 74.8,47.8 70.9,47.8 76.9,41.3 			"/>
			<polygon class="st1" points="80.4,47.8 84.1,47.8 80.8,41.7 86.9,35 83,35 78.1,40.7 78.1,43.7 			"/>
		</g>
	</g>
</g>
<g>
</g>
<g>
</g>
<g>
</g>
<g>
</g>
<g>
</g>
<g>
</g>
<g>
</g>
<g>
</g>
<g>
</g>
<g>
</g>
<g>
</g>
<g>
</g>
<g>
</g>
<g>
</g>
<g>
</g>
</svg>
